<svg width="33" height="28" viewBox="0 0 33 28" fill="none" xmlns="http://www.w3.org/2000/svg">
<path d="M22.259 10.1732C22.2637 10.1861 22.2685 10.1991 22.2746 10.2575C22.2789 10.6722 22.2819 11.0414 22.2849 11.4107C22.2811 11.9479 22.2772 12.4852 22.2747 13.0773C22.2763 13.5107 22.2766 13.8893 22.2769 14.2679C22.2769 14.4779 22.2769 14.688 22.2537 14.9235C22.1475 14.93 22.0645 14.9111 21.9675 14.8757C21.1518 14.5891 20.3602 14.281 19.544 14.0658C19.1791 13.9696 18.7395 13.9739 18.378 14.0814C17.157 14.4444 15.9532 14.8662 14.7482 15.281C13.8773 15.5808 13.4025 16.2313 13.3991 17.115C13.3921 18.9638 13.3884 20.8127 13.3965 22.6615C13.4007 23.6146 13.6918 24.4598 14.4915 25.0404C14.9269 25.3566 15.4008 25.6239 15.8734 25.884C16.7822 26.3839 17.7025 26.8631 18.5989 27.3703C18.4798 27.4008 18.3798 27.4214 18.2799 27.4214C14.0824 27.4231 9.88464 27.447 5.68745 27.4108C4.07813 27.3969 2.45044 27.6407 0.859969 27.1841C0.859969 27.1841 0.866459 27.179 0.857566 27.168C0.828216 27.1534 0.807756 27.15 0.787298 27.1466C0.787298 27.1466 0.784311 27.1411 0.788234 27.117C0.712741 26.8919 0.635203 26.689 0.361895 26.7011C0.361895 26.7011 0.379765 26.6835 0.374241 26.668C0.293846 26.4362 0.160053 26.2214 0.154206 26.0032C0.127579 25.0091 0.13828 24.0141 0.130948 23.0194C0.130313 22.9332 0.0960426 22.8472 0.0758417 22.7322C0.0736881 15.8895 0.0730908 9.07575 0.0757031 2.23877C0.199453 1.73818 0.363243 1.28622 0.775878 0.970341C0.812842 0.942044 0.814157 0.867178 0.832027 0.813937C0.832027 0.813937 0.838387 0.81539 0.862045 0.822613C1.287 0.734427 1.68789 0.558121 2.08965 0.556112C6.16713 0.535732 10.2448 0.537435 14.3223 0.555897C14.6501 0.55738 14.9768 0.730628 15.305 0.820628C15.4088 0.849111 15.5158 0.866421 15.6213 0.888846C15.6213 0.888846 15.603 0.900651 15.6063 0.916044C15.7305 1.0691 15.7711 1.3106 16.0365 1.26122C17.0257 2.24655 18.0162 3.23052 19.0036 4.21764C19.8407 5.05459 20.6722 5.89718 21.5103 6.73321C21.8491 7.07114 22.1188 7.44624 22.2034 7.96462C22.1774 8.68389 22.1693 9.36109 22.169 10.0383C22.169 10.0833 22.2276 10.1282 22.259 10.1732ZM4.38075 11.4539C4.38075 11.4539 4.38441 11.4457 4.37873 11.4892C4.45941 11.5171 4.54009 11.5449 4.6608 11.5715C4.68621 11.5795 4.71162 11.5875 4.74624 11.6396C4.9288 11.6432 5.11137 11.6499 5.29394 11.6499C9.04302 11.6506 12.7921 11.6505 16.5412 11.6504C16.6433 11.6504 16.7562 11.6736 16.8442 11.6375C16.9226 11.6053 16.9735 11.5059 17.0421 11.4369C17.0421 11.4369 17.0418 11.4312 17.0877 11.4484C17.2937 11.3275 17.4232 10.999 17.3249 10.7602C17.2802 10.6517 17.1593 10.5745 17.042 10.4783C17.0131 10.4499 16.9843 10.4215 16.945 10.3393C16.8273 10.3057 16.7097 10.2429 16.592 10.2427C12.6863 10.2375 8.78057 10.2377 4.87485 10.2407C4.76906 10.2407 4.66331 10.2792 4.50629 10.2999C4.35596 10.2972 4.27182 10.3457 4.33561 10.5123C4.33561 10.5123 4.33648 10.5179 4.2909 10.502C4.21861 10.6835 4.10296 10.8621 4.09053 11.0476C4.08325 11.1564 4.058 11.4108 4.31825 11.3925C4.31825 11.3925 4.31908 11.3835 4.32687 11.4197C4.34778 11.4308 4.3687 11.4418 4.38075 11.4539ZM15.1063 7.72284C15.1063 7.72284 15.1008 7.72939 15.1074 7.77102C15.2302 7.83866 15.353 7.90629 15.4957 7.97956C15.4957 7.97956 15.5159 7.97523 15.5599 8.00771C15.6199 8.01629 15.6798 8.03231 15.7397 8.03238C17.2666 8.03403 18.7934 8.03425 20.3203 8.03337C20.3758 8.03334 20.4312 8.01962 20.5603 8.00252C20.4476 7.91324 20.3898 7.8675 20.3214 7.7831C20.2897 7.74367 20.2614 7.70087 20.2258 7.66529C18.6056 6.04464 16.985 4.42438 15.363 2.80558C15.3143 2.75697 15.2497 2.72425 15.1724 2.65492C15.1517 2.64503 15.1309 2.63514 15.1136 2.62541C15.1136 2.62541 15.1138 2.62207 15.108 2.57991C15.0231 2.49422 14.9382 2.40854 14.827 2.29636C14.8085 2.3907 14.7977 2.42003 14.7977 2.44937C14.7961 4.00319 14.7921 5.55701 14.8002 7.11078C14.8009 7.25411 14.8791 7.39703 14.9226 7.53835C14.9226 7.53835 14.9209 7.53987 14.9357 7.57663C14.9905 7.62731 15.0452 7.67799 15.1063 7.72284ZM4.57264 17.9146C4.41958 18.0514 4.2361 18.1667 4.12093 18.3302C3.96612 18.55 4.09338 18.9621 4.30842 19.1195C4.38806 19.4521 4.68951 19.367 4.88271 19.3695C6.42079 19.3898 7.95927 19.384 9.4976 19.3789C9.96351 19.3773 10.259 19.1577 10.2002 18.6636C10.1882 18.5631 10.1965 18.46 10.1986 18.3582C10.2046 18.0616 9.98648 17.9871 9.70739 17.9116C8.0105 17.912 6.31361 17.9124 4.57264 17.9146ZM11.3767 5.45226C9.21389 5.45235 7.05109 5.4507 4.88832 5.45754C4.77684 5.45789 4.66559 5.53092 4.52664 5.60237C4.14823 5.88279 4.10887 6.05498 4.31008 6.59747C4.35223 6.66463 4.38443 6.77917 4.43831 6.79049C4.63724 6.83227 4.84329 6.85727 5.04673 6.85772C7.02717 6.86209 9.00763 6.86024 10.9881 6.86008C11.2108 6.86006 11.4349 6.87547 11.6559 6.85583C12.0545 6.82039 12.2816 6.46919 12.2146 6.03346C12.1446 5.57781 11.8536 5.39856 11.3767 5.45226ZM4.6132 14.094C4.04392 14.4259 4.04677 14.9011 4.63969 15.3385C4.73636 15.3567 4.833 15.3905 4.92968 15.3906C7.1163 15.3936 9.30293 15.3929 11.4895 15.3924C11.5606 15.3923 11.6316 15.3866 11.7026 15.3835C11.6957 15.355 11.6888 15.3264 11.7201 15.2733C12.2429 15.0729 12.2782 14.5123 11.7814 14.055C11.6794 14.0305 11.5776 13.9854 11.4754 13.9848C10.538 13.9793 9.60053 13.9815 8.66307 13.9815C7.38936 13.9815 6.11564 13.9802 4.84194 13.985C4.7759 13.9852 4.71006 14.0367 4.6132 14.094Z" fill="#0C3951"/>
<path d="M18.6181 27.3508C17.7026 26.8631 16.7823 26.384 15.8735 25.884C15.4008 25.6239 14.9269 25.3566 14.4915 25.0404C13.6919 24.4598 13.4007 23.6146 13.3965 22.6615C13.3885 20.8127 13.3922 18.9638 13.3992 17.115C13.4026 16.2313 13.8773 15.5808 14.7482 15.281C15.9533 14.8662 17.1571 14.4444 18.378 14.0814C18.7395 13.9739 19.1792 13.9696 19.5441 14.0658C20.3602 14.281 21.1519 14.5891 21.9785 14.895C22.0804 15.0478 22.1572 15.165 22.2445 15.2983C22.6316 15.3454 23.0465 15.3958 23.4614 15.4463C23.4614 15.4463 23.4562 15.4481 23.4629 15.4662C23.6084 15.5555 23.7471 15.6266 23.8858 15.6976C23.8858 15.6976 23.9158 15.6947 23.9485 15.717C24.1128 15.7469 24.2443 15.7562 24.3759 15.7617C25.7069 15.8177 27.0446 15.639 28.3703 15.8775C28.3703 15.8775 28.3643 15.8795 28.3727 15.8938C28.4169 15.9196 28.4527 15.9311 28.4886 15.9425C28.4886 15.9425 28.4845 15.9445 28.4863 15.9639C28.6159 16.1105 28.7435 16.2378 28.8712 16.365C28.8712 16.365 28.8616 16.3678 28.8644 16.3798C28.8836 16.4064 28.9001 16.421 28.9166 16.4356C28.9166 16.4356 28.9288 16.4472 28.9233 16.4835C28.9367 16.773 28.969 17.026 28.9719 17.2794C28.9795 17.9542 28.9928 18.6298 28.9668 19.3037C28.9535 19.6489 29.1081 19.8819 29.324 20.1083C29.5294 20.3236 29.7534 20.2143 29.9934 20.1893C30.3929 20.1476 30.7995 20.1742 31.2032 20.1721C31.2032 20.1721 31.226 20.168 31.2389 20.1961C31.3134 20.2485 31.375 20.2726 31.4366 20.2968C31.4366 20.2968 31.4314 20.3001 31.433 20.3197C31.5364 20.4078 31.6382 20.4763 31.74 20.5448C31.74 20.5448 31.7363 20.5471 31.7385 20.5654C31.7685 20.6073 31.7962 20.6308 31.824 20.6544C31.824 20.6544 31.8146 20.6544 31.8118 20.6738C31.9245 20.8696 32.04 21.046 32.1555 21.2224C32.1555 21.2224 32.1718 21.2409 32.1697 21.2832C32.1528 21.7839 32.2357 22.2573 31.9358 22.6698C31.876 22.7521 31.8594 22.8658 31.8228 22.9651C31.8228 22.9651 31.8158 22.9586 31.8 22.9603C31.7691 22.9972 31.754 23.0324 31.7389 23.0676C31.7389 23.0676 31.7371 23.0631 31.719 23.0661C31.6716 23.1074 31.6423 23.1456 31.6129 23.1838C31.6129 23.1838 31.6134 23.1861 31.593 23.1879C31.5493 23.2164 31.5259 23.243 31.5025 23.2697C31.5025 23.2697 31.5024 23.2604 31.4827 23.2585C31.37 23.2943 31.2724 23.3234 31.1849 23.3712C30.7092 23.6316 30.2384 23.5954 29.7626 23.369C29.6477 23.3143 29.5176 23.2916 29.3945 23.2542C29.3945 23.2542 29.4004 23.252 29.3939 23.2387C29.3563 23.2108 29.3251 23.1963 29.294 23.1818C29.294 23.1818 29.2856 23.1833 29.2818 23.1606C29.2507 23.1182 29.2232 23.0984 29.1958 23.0786C29.1958 23.0786 29.2046 23.0787 29.2073 23.0592C29.1969 23.0026 29.1931 22.9577 29.1694 22.9296C28.8175 22.5141 28.6656 22.0487 28.7855 21.5038C28.814 21.3745 28.7994 21.2358 28.8046 21.1014C28.8008 21.0738 28.7971 21.0463 28.8063 20.9863C28.7829 20.9029 28.7555 20.8412 28.709 20.8024C28.2092 20.3843 27.9689 19.858 27.9897 19.2006C28.0077 18.6315 27.9968 18.0613 27.9909 17.4916C27.9898 17.3865 27.9517 17.2818 27.9307 17.1769C27.859 17.0721 27.7873 16.9673 27.6876 16.8278C27.6235 16.7773 27.5874 16.7477 27.5512 16.7476C26.6145 16.7441 25.6778 16.7415 24.7411 16.7476C24.6794 16.748 24.6182 16.8182 24.5568 16.856C24.5568 16.856 24.56 16.8637 24.539 16.8841C24.5103 16.9646 24.4961 17.0248 24.4961 17.085C24.495 19.0587 24.4947 21.0324 24.497 23.0062C24.4971 23.0847 24.5234 23.1632 24.5374 23.2417C24.4206 24.1305 23.9608 24.8027 23.1982 25.2478C22.0037 25.9451 20.7926 26.614 19.5423 27.2976C19.3412 27.321 19.1864 27.3418 19.0172 27.3613C19.0026 27.36 18.9737 27.363 18.948 27.3605C18.821 27.3557 18.7196 27.3532 18.6181 27.3508ZM19.4401 24.7339C19.6914 24.4999 19.5676 24.1945 19.5841 23.9203C19.597 23.7047 19.657 23.5792 19.8868 23.538C20.0759 23.5041 20.2672 23.4469 20.4399 23.3634C21.1673 23.0119 21.5628 22.4377 21.5579 21.6154C21.5531 20.8221 21.1714 20.2752 20.4403 19.9867C20.119 19.8599 19.7779 19.7836 19.4464 19.6825C19.0366 19.5574 18.6178 19.4545 18.2213 19.2959C17.9435 19.1849 17.7659 18.9566 17.7914 18.6207C17.8147 18.3142 18.0258 18.1849 18.275 18.0939C18.8564 17.8816 19.4236 18.0015 19.9842 18.1845C20.2333 18.2657 20.5558 18.5047 20.7037 18.4214C20.915 18.3023 20.9938 17.9515 21.1347 17.7027C21.2238 17.5454 21.1984 17.4288 21.0291 17.3573C20.7661 17.2461 20.5068 17.1219 20.2359 17.0341C19.6069 16.8303 19.5986 16.8378 19.5875 16.1895C19.5837 15.9697 19.5112 15.8045 19.3051 15.7288C18.7231 15.5151 18.3599 15.7688 18.3582 16.381C18.3569 16.8445 18.3563 16.842 17.9122 16.9421C17.783 16.9713 17.654 17.0097 17.5318 17.0603C16.8141 17.3576 16.3928 17.8884 16.3617 18.6706C16.3324 19.4064 16.6357 19.995 17.3174 20.3147C17.7021 20.4951 18.1243 20.5962 18.5311 20.7286C18.9375 20.8608 19.3514 20.9724 19.7511 21.1221C20.0144 21.2207 20.1372 21.4494 20.1303 21.7313C20.1222 22.0649 19.8451 22.3143 19.3983 22.3923C18.5721 22.5366 17.8196 22.2857 17.0997 21.9241C16.8962 21.8219 16.8094 21.8547 16.7176 22.0366C16.6211 22.228 16.5169 22.4165 16.4024 22.5976C16.2849 22.7834 16.3303 22.9007 16.5251 22.9798C16.8938 23.1294 17.2563 23.2964 17.6314 23.4276C18.3146 23.6665 18.3041 23.6589 18.3651 24.4025C18.3774 24.5534 18.5157 24.7951 18.6289 24.8159C18.8757 24.8614 19.1437 24.7916 19.4401 24.7339ZM30.7145 22.4616C31.1535 22.2312 31.2944 21.7857 31.0417 21.4269C30.8418 21.1432 30.4804 21.0459 30.1758 21.1937C29.8531 21.3502 29.6994 21.7081 29.8122 22.0397C29.9359 22.4036 30.2325 22.5555 30.7145 22.4616Z" fill="#0FA093"/>
<path d="M22.2966 14.2619C22.2767 13.8893 22.2764 13.5107 22.2772 13.1073C22.3315 13.0891 22.3846 13.0957 22.4376 13.1155C22.4312 13.1431 22.4241 13.1574 22.4197 13.1725C22.4192 13.174 22.4343 13.1837 22.4422 13.1837C23.4642 13.184 24.4862 13.1853 25.5081 13.1786C25.5599 13.1782 25.6112 13.1078 25.6626 13.0699C26.2246 12.5432 26.7866 12.0165 27.3825 11.4589C27.4245 10.8731 27.438 10.318 27.4383 9.76286C27.4384 9.51354 27.412 9.26421 27.3976 9.01489C27.5176 8.80601 27.62 8.58398 27.7632 8.3924C27.8775 8.23944 28.035 8.11564 28.1846 7.99272C28.6219 7.63353 28.9263 7.25253 29.0012 6.62303C29.1137 5.67703 30.1355 5.03881 31.0717 5.18767C32.0763 5.34739 32.733 6.19021 32.6568 7.22193C32.5854 8.18785 31.753 8.9647 30.8002 8.95032C30.2945 8.94268 29.8757 8.72489 29.477 8.3599C29.1834 8.62689 28.8854 8.88444 28.6073 9.16183C28.5493 9.21959 28.5495 9.3507 28.5488 9.44821C28.5439 10.0717 28.5424 10.6953 28.5476 11.3187C28.551 11.7272 28.4332 12.0833 28.1334 12.369C27.6013 12.8763 27.0812 13.3974 26.5277 13.8803C26.3381 14.0458 26.0636 14.1141 25.7853 14.2061C24.6511 14.1784 23.5595 14.1713 22.4679 14.1652C22.4509 14.1651 22.4338 14.1764 22.4168 14.1823C22.4258 14.1955 22.4331 14.2103 22.4444 14.221C22.4508 14.2271 22.4637 14.2262 22.4737 14.2285C22.4212 14.2376 22.3687 14.2468 22.2966 14.2619ZM31.1866 7.70524C31.5826 7.42836 31.6798 6.96173 31.4184 6.59216C31.2004 6.28388 30.708 6.21334 30.3759 6.4428C30.0843 6.64429 29.9914 7.05251 30.158 7.40096C30.323 7.7462 30.7155 7.87728 31.1866 7.70524Z" fill="#10A092"/>
<path d="M22.3138 11.4101C22.2819 11.0414 22.2789 10.6722 22.2773 10.2779C22.7075 10.2594 23.1363 10.2677 23.5651 10.2716C23.7759 10.2735 23.8881 10.1676 23.8881 9.95226C23.8882 8.409 23.8937 6.86568 23.8763 5.32261C23.8751 5.21997 23.7171 5.08883 23.6022 5.02275C22.9694 4.65868 22.5694 3.9236 22.6679 3.22429C22.7794 2.43245 23.2254 1.88939 23.9829 1.64704C24.9241 1.34594 25.912 1.84405 26.2562 2.75474C26.5934 3.64696 26.1796 4.65173 25.3004 5.0752C25.2268 5.11064 25.153 5.14551 25.045 5.21275C25.0025 5.29441 24.9869 5.34396 24.9869 5.39352C24.9858 6.89084 24.9854 8.38816 24.9886 9.88547C24.9888 9.96178 25.0224 10.038 25.0404 10.1143C24.9612 10.8345 24.3846 11.3785 23.6541 11.4033C23.2174 11.4182 22.7799 11.4083 22.3138 11.4101ZM24.4261 2.69976C23.8532 2.74754 23.5677 3.45187 23.9494 3.90433C24.1682 4.16362 24.5241 4.242 24.8358 4.10183C25.1533 3.95904 25.3073 3.61966 25.2305 3.23159C25.1681 2.91606 24.9022 2.7275 24.4261 2.69976Z" fill="#12A092"/>
<path d="M29.6112 16.0456C28.94 15.3384 28.8481 14.4217 29.3605 13.6839C29.8427 12.9898 30.764 12.703 31.5315 13.0292C32.1847 13.3068 32.5771 13.813 32.6483 14.5177C32.7251 15.2765 32.4105 15.8849 31.7589 16.2716C31.1285 16.6457 30.4741 16.6095 29.8452 16.228C29.7673 16.1807 29.6993 16.1171 29.6112 16.0456ZM31.4944 14.4571C31.2628 14.0784 30.8819 13.9422 30.5413 14.1163C30.2215 14.2797 30.0818 14.6416 30.2121 14.969C30.3323 15.2708 30.7038 15.4587 31.0127 15.3738C31.4187 15.2623 31.5974 14.948 31.4944 14.4571Z" fill="#12A092"/>
<path d="M18.599 27.3703C18.7195 27.3532 18.821 27.3557 18.9531 27.3706C18.9997 27.3762 19.0157 27.3694 19.0316 27.3626C19.1864 27.3418 19.3412 27.321 19.5182 27.3001C19.2307 27.3781 18.9212 27.5235 18.6114 27.5242C13.0998 27.5376 7.58822 27.5326 2.07664 27.5346C1.64734 27.5348 1.24476 27.4547 0.869629 27.2029C2.45047 27.6407 4.07817 27.3969 5.68748 27.4108C9.88468 27.447 14.0824 27.4231 18.2799 27.4214C18.3799 27.4214 18.4798 27.4008 18.599 27.3703Z" fill="#2C4655"/>
<path d="M15.6098 0.871596C15.5158 0.866422 15.4089 0.849111 15.305 0.820628C14.9768 0.730628 14.6502 0.55738 14.3223 0.555897C10.2448 0.537435 6.16715 0.535733 2.08968 0.556112C1.68791 0.558122 1.28702 0.734428 0.862915 0.819464C1.19741 0.536373 1.61094 0.464636 2.04706 0.465384C3.12971 0.467241 4.21236 0.465434 5.29501 0.465966C8.30802 0.467445 11.321 0.472496 14.334 0.467825C14.8016 0.467101 15.2176 0.592308 15.6098 0.871596Z" fill="#0A2637"/>
<path d="M0.072546 2.26195C0.0731443 9.07574 0.0737416 15.8895 0.0748587 22.7604C0.0752931 23.7139 0.0771658 24.6103 0.0725104 25.5066C0.0719636 25.612 0.0355326 25.7173 0.015737 25.8226C0.0104693 24.2395 0.00104536 22.6564 0.000666145 21.0734C-0.000812317 14.9032 0.000561254 8.73314 0.00105191 2.56304C0.00105749 2.48133 0.00338049 2.39962 0.0245047 2.28968C0.0443873 2.26145 0.072546 2.26195 0.072546 2.26195Z" fill="#001627"/>
<path d="M31.1874 20.1556C30.7996 20.1742 30.3929 20.1476 29.9934 20.1893C29.7534 20.2143 29.5294 20.3236 29.3241 20.1083C29.1081 19.8819 28.9536 19.6489 28.9669 19.3037C28.9928 18.6298 28.9795 17.9542 28.9719 17.2794C28.969 17.026 28.9367 16.773 28.9199 16.4912C28.9698 16.6766 29.0535 16.8897 29.0589 17.1047C29.0767 17.8091 29.0829 18.5147 29.0596 19.2187C29.0462 19.6242 29.2256 19.9041 29.5272 20.122C29.594 20.1702 29.7354 20.1516 29.8284 20.121C30.2804 19.9718 30.7263 19.9375 31.1874 20.1556Z" fill="#1E897C"/>
<path d="M24.5453 23.2143C24.5234 23.1632 24.4971 23.0847 24.497 23.0062C24.4947 21.0324 24.495 19.0587 24.4961 17.085C24.4961 17.0248 24.5103 16.9646 24.5353 16.886C24.5528 18.974 24.553 21.0805 24.5453 23.2143Z" fill="#1E897C"/>
<path d="M27.9256 17.2047C27.9517 17.2818 27.9898 17.3865 27.9909 17.4916C27.9968 18.0613 28.0077 18.6315 27.9897 19.2006C27.9689 19.858 28.2092 20.3843 28.709 20.8024C28.7555 20.8412 28.7829 20.9029 28.8048 20.9655C28.2226 20.5918 27.9003 20.0785 27.914 19.37C27.9278 18.6578 27.9192 17.9451 27.9256 17.2047Z" fill="#1E897C"/>
<path d="M0.0118408 25.8475C0.0355633 25.7173 0.0719943 25.612 0.0725411 25.5066C0.0771965 24.6103 0.0753238 23.7139 0.0764446 22.7893C0.0961268 22.8472 0.130397 22.9332 0.131033 23.0194C0.138364 24.0141 0.127663 25.0091 0.154291 26.0032C0.160137 26.2214 0.293931 26.4362 0.365466 26.6769C0.244057 26.425 0.125986 26.1487 0.0118408 25.8475Z" fill="#2C4655"/>
<path d="M23.4511 15.4277C23.0465 15.3958 22.6316 15.3454 22.2445 15.2983C22.1572 15.165 22.0804 15.0478 21.9926 14.9114C22.0645 14.9111 22.1476 14.93 22.2516 14.9513C22.662 15.1055 23.0514 15.2573 23.4511 15.4277Z" fill="#10A092"/>
<path d="M25.0466 10.0862C25.0224 10.038 24.9888 9.96178 24.9886 9.88547C24.9854 8.38816 24.9858 6.89084 24.9869 5.39352C24.987 5.34396 25.0025 5.29441 25.0294 5.22769C25.0496 6.82637 25.0512 8.44223 25.0466 10.0862Z" fill="#1E897C"/>
<path d="M28.3588 15.8579C27.0446 15.639 25.7068 15.8177 24.3759 15.7617C24.2443 15.7562 24.1128 15.7469 23.9629 15.7216C25.2474 15.7003 26.5503 15.6913 27.8531 15.6993C28.0181 15.7003 28.1826 15.7898 28.3588 15.8579Z" fill="#1E897C"/>
<path d="M22.2654 10.1454C22.2277 10.1282 22.169 10.0833 22.1691 10.0383C22.1694 9.36109 22.1774 8.68389 22.2007 7.98783C22.2358 8.68518 22.2538 9.40139 22.2654 10.1454Z" fill="#041E2F"/>
<path d="M29.4053 23.2723C29.5176 23.2916 29.6477 23.3143 29.7626 23.369C30.2384 23.5953 30.7092 23.6316 31.185 23.3712C31.2724 23.3234 31.3701 23.2943 31.4868 23.2608C30.9426 23.7562 30.1024 23.7664 29.4053 23.2723Z" fill="#1E897C"/>
<path d="M28.7926 21.1218C28.7994 21.2358 28.814 21.3745 28.7856 21.5038C28.6657 22.0487 28.8176 22.514 29.1694 22.9296C29.1932 22.9577 29.1969 23.0026 29.2045 23.0626C28.6793 22.6248 28.515 21.8615 28.7926 21.1218Z" fill="#1E897C"/>
<path d="M25.6375 13.0731C25.6111 13.1078 25.5599 13.1782 25.5081 13.1786C24.4862 13.1853 23.4642 13.184 22.4422 13.1837C22.4343 13.1837 22.4192 13.174 22.4197 13.1725C22.4241 13.1574 22.4312 13.1431 22.4554 13.1246C23.4545 13.1173 24.4358 13.1142 25.453 13.1166C25.4993 13.1214 25.5095 13.1196 25.5196 13.117C25.5505 13.1034 25.5814 13.0898 25.6375 13.0731Z" fill="#1E897C"/>
<path d="M22.5018 14.2333C22.4636 14.2262 22.4507 14.2271 22.4444 14.221C22.4331 14.2103 22.4257 14.1955 22.4167 14.1823C22.4338 14.1764 22.4509 14.1651 22.4679 14.1652C23.5595 14.1713 24.6511 14.1784 25.7615 14.2021C24.6969 14.2252 23.6134 14.2317 22.5018 14.2333Z" fill="#1E897C"/>
<path d="M24.5825 16.8502C24.6183 16.8182 24.6795 16.748 24.7412 16.7476C25.6778 16.7415 26.6146 16.7441 27.5513 16.7476C27.5875 16.7477 27.6235 16.7773 27.6703 16.818C27.6401 16.8375 27.5992 16.8321 27.5121 16.8164C27.4295 16.8076 27.393 16.8091 27.3566 16.8106C26.4405 16.8219 25.5243 16.8331 24.5825 16.8502Z" fill="#1E897C"/>
<path d="M0.0757702 2.23877C0.0725596 2.26195 0.0444008 2.26145 0.0303206 2.26162C0.0260267 1.64848 0.315099 1.18699 0.813555 0.821589C0.814224 0.867178 0.812909 0.942043 0.775945 0.970341C0.36331 1.28622 0.19952 1.73818 0.0757702 2.23877Z" fill="#0A2637"/>
<path d="M31.8414 22.9568C31.8594 22.8658 31.876 22.7521 31.9359 22.6698C32.2357 22.2573 32.1528 21.7839 32.1695 21.2956C32.3888 21.886 32.2447 22.4395 31.8414 22.9568Z" fill="#1E897C"/>
<path d="M27.389 9.04229C27.412 9.26421 27.4384 9.51354 27.4383 9.76286C27.438 10.318 27.4245 10.8731 27.3984 11.4462C27.3804 10.6661 27.3804 9.86787 27.389 9.04229Z" fill="#1E897C"/>
<path d="M0.365845 26.7216C0.635323 26.689 0.712861 26.8919 0.785778 27.1153C0.642743 27.0059 0.506207 26.874 0.365845 26.7216Z" fill="#2C4655"/>
<path d="M16.0282 1.24328C15.7712 1.3106 15.7306 1.0691 15.6146 0.908901C15.7529 0.999355 15.8863 1.11234 16.0282 1.24328Z" fill="#0A2637"/>
<path d="M32.1547 21.2006C32.04 21.046 31.9245 20.8696 31.8148 20.6702C31.9317 20.8243 32.0428 21.0016 32.1547 21.2006Z" fill="#1E897C"/>
<path d="M28.8674 16.3439C28.7435 16.2378 28.6158 16.1105 28.4872 15.9618C28.612 16.0678 28.7379 16.1952 28.8674 16.3439Z" fill="#1E897C"/>
<path d="M23.8729 15.6815C23.747 15.6266 23.6083 15.5555 23.463 15.4635C23.591 15.5168 23.7255 15.5911 23.8729 15.6815Z" fill="#1E897C"/>
<path d="M31.7319 20.5261C31.6382 20.4763 31.5364 20.4078 31.4341 20.3168C31.5304 20.3654 31.6271 20.4364 31.7319 20.5261Z" fill="#1E897C"/>
<path d="M31.4252 20.2811C31.375 20.2726 31.3134 20.2485 31.2483 20.2029C31.3011 20.2094 31.3575 20.2374 31.4252 20.2811Z" fill="#1E897C"/>
<path d="M31.6301 23.1785C31.6423 23.1456 31.6716 23.1074 31.721 23.0676C31.7098 23.1017 31.6786 23.1374 31.6301 23.1785Z" fill="#1E897C"/>
<path d="M31.757 23.0619C31.754 23.0324 31.7691 22.9972 31.8047 22.9596C31.8085 22.9902 31.7918 23.0231 31.757 23.0619Z" fill="#1E897C"/>
<path d="M31.8212 20.6358C31.7963 20.6308 31.7685 20.6073 31.7396 20.5635C31.7651 20.568 31.7917 20.5926 31.8212 20.6358Z" fill="#1E897C"/>
<path d="M27.3721 16.8182C27.393 16.8091 27.4294 16.8076 27.4932 16.8077C27.4762 16.8148 27.4319 16.8204 27.3721 16.8182Z" fill="#0FA093"/>
<path d="M28.4795 15.9258C28.4528 15.9311 28.4169 15.9196 28.3724 15.8906C28.3993 15.8851 28.4349 15.8971 28.4795 15.9258Z" fill="#1E897C"/>
<path d="M29.3007 23.1982C29.3252 23.1963 29.3563 23.2108 29.3942 23.2418C29.3697 23.2437 29.3385 23.2291 29.3007 23.1982Z" fill="#1E897C"/>
<path d="M31.5204 23.2661C31.5258 23.243 31.5492 23.2164 31.5919 23.1876C31.5869 23.211 31.5626 23.2368 31.5204 23.2661Z" fill="#1E897C"/>
<path d="M29.1995 23.096C29.2233 23.0984 29.2507 23.1182 29.2818 23.1564C29.258 23.1543 29.2305 23.1339 29.1995 23.096Z" fill="#1E897C"/>
<path d="M28.9157 16.4179C28.9002 16.421 28.8837 16.4064 28.8646 16.3748C28.8796 16.3719 28.8972 16.3861 28.9157 16.4179Z" fill="#1E897C"/>
<path d="M25.5121 13.1109C25.5094 13.1196 25.4991 13.1213 25.4809 13.1219C25.4796 13.1083 25.4902 13.1027 25.5121 13.1109Z" fill="#10A092"/>
<path d="M0.796265 27.1587C0.807716 27.15 0.828176 27.1534 0.855955 27.1718C0.842648 27.1861 0.823313 27.1809 0.796265 27.1587Z" fill="#2C4655"/>
<path d="M4.73699 11.5956C4.71158 11.5875 4.68617 11.5795 4.62646 11.5591C4.52289 11.513 4.45363 11.4794 4.38438 11.4457C4.38438 11.4457 4.38071 11.4539 4.37941 11.4365C4.35841 11.4073 4.33873 11.3954 4.31904 11.3835C4.31904 11.3835 4.31822 11.3925 4.31451 11.3691C4.12371 11.0637 4.14767 10.7883 4.33644 10.5179C4.33644 10.5179 4.33557 10.5123 4.35522 10.5018C4.46927 10.4335 4.56368 10.3757 4.68344 10.3238C8.66136 10.3264 12.6139 10.3222 16.5665 10.3226C16.6961 10.3226 16.8258 10.3686 16.9554 10.3931C16.9842 10.4215 17.0131 10.4499 17.0647 10.5013C17.3231 10.9051 17.3156 11.0549 17.0418 11.4312C17.0418 11.4312 17.0421 11.4369 17.0203 11.4482C16.8238 11.5017 16.6493 11.5802 16.4746 11.5807C13.42 11.5882 10.3654 11.5855 7.31084 11.5866C6.45289 11.5869 5.59494 11.5924 4.73699 11.5956Z" fill="#F2F5F5"/>
<path d="M15.1926 2.68412C15.2498 2.72425 15.3143 2.75697 15.3631 2.80557C16.9851 4.42438 18.6057 6.04463 20.2258 7.66529C20.2614 7.70087 20.2898 7.74367 20.32 7.82892C20.2097 7.90576 20.101 7.96322 19.992 7.96384C18.5 7.97222 17.008 7.97276 15.516 7.97523C15.516 7.97523 15.4958 7.97956 15.4827 7.95511C15.3466 7.86357 15.2237 7.79648 15.1008 7.72938C15.1008 7.72938 15.1063 7.72284 15.1035 7.70422C15.0407 7.63703 14.9808 7.58845 14.9209 7.53987C14.9209 7.53987 14.9226 7.53835 14.9225 7.51209C14.9224 5.85879 14.9224 4.23175 14.9224 2.59709C14.9761 2.60409 15.045 2.61308 15.1139 2.62207C15.1139 2.62207 15.1136 2.62541 15.1206 2.64107C15.1492 2.66586 15.1709 2.67499 15.1926 2.68412Z" fill="#0DA092"/>
<path d="M11.7939 14.1033C12.2783 14.5122 12.243 15.0729 11.6758 15.2861C10.815 15.2999 9.99847 15.3032 9.18197 15.3016C7.66146 15.2985 6.14096 15.2926 4.62045 15.2878C4.04685 14.9011 4.044 14.4259 4.65551 14.079C6.97362 14.0612 9.24951 14.0579 11.5254 14.0577C11.6149 14.0577 11.7044 14.0874 11.7939 14.1033Z" fill="#F2F5F6"/>
<path d="M4.31052 6.54825C4.10895 6.05498 4.1483 5.88279 4.5659 5.58401C4.74596 5.55116 4.8868 5.52442 5.02771 5.52403C7.15992 5.51807 9.29215 5.51558 11.4469 5.51869C11.5953 5.56084 11.7388 5.56958 11.8436 5.63779C12.0733 5.78734 12.1959 6.00531 12.1201 6.29209C12.0384 6.60163 11.8319 6.75824 11.4899 6.75862C9.33313 6.761 7.17626 6.76687 5.01955 6.75132C4.78273 6.74961 4.54684 6.61905 4.31052 6.54825Z" fill="#F2F5F5"/>
<path d="M4.3103 6.57286C4.54681 6.61905 4.7827 6.74961 5.01952 6.75132C7.17623 6.76687 9.33309 6.761 11.4899 6.75862C11.8319 6.75824 12.0383 6.60163 12.1201 6.29209C12.1959 6.00531 12.0733 5.78734 11.8435 5.63779C11.7387 5.56958 11.5952 5.56084 11.4505 5.50381C11.4318 5.48251 11.4366 5.45221 11.4366 5.45221C11.8536 5.39856 12.1446 5.57781 12.2147 6.03346C12.2816 6.46919 12.0546 6.82039 11.6559 6.85582C11.4349 6.87547 11.2108 6.86006 10.9881 6.86008C9.00767 6.86023 7.02721 6.86209 5.04677 6.85771C4.84333 6.85726 4.63728 6.83227 4.43835 6.79049C4.38447 6.77917 4.35227 6.66463 4.3103 6.57286Z" fill="#2C4655"/>
<path d="M9.76399 17.9162C9.98658 17.9871 10.2047 18.0616 10.1987 18.3582C10.1966 18.46 10.1883 18.5631 10.2003 18.6636C10.2591 19.1577 9.96361 19.3773 9.4977 19.3789C7.95937 19.384 6.42089 19.3898 4.88281 19.3695C4.68961 19.3669 4.38817 19.4521 4.3114 19.0934C4.31429 19.0673 4.31796 19.0638 4.33958 19.0698C4.50675 19.1384 4.65186 19.2541 4.7979 19.2553C6.37251 19.268 7.9473 19.2669 9.52198 19.2596C9.97281 19.2575 10.264 18.8048 10.0772 18.3957C10.0134 18.2559 9.87333 18.1511 9.76727 18.0112C9.76561 17.9669 9.7648 17.9416 9.76399 17.9162Z" fill="#0A2637"/>
<path d="M4.7417 11.6176C5.59504 11.5924 6.453 11.5869 7.31094 11.5866C10.3655 11.5855 13.4201 11.5882 16.4747 11.5807C16.6494 11.5802 16.8239 11.5017 17.0175 11.4478C16.9735 11.5059 16.9227 11.6053 16.8443 11.6375C16.7563 11.6736 16.6433 11.6504 16.5412 11.6504C12.7922 11.6505 9.04308 11.6506 5.29401 11.6499C5.11144 11.6499 4.92887 11.6432 4.7417 11.6176Z" fill="#0A2637"/>
<path d="M16.9503 10.3662C16.8259 10.3686 16.6962 10.3226 16.5666 10.3226C12.614 10.3222 8.66148 10.3264 4.65862 10.3179C4.59141 10.3039 4.57451 10.3018 4.55762 10.2997C4.66339 10.2791 4.76915 10.2407 4.87493 10.2407C8.78065 10.2377 12.6864 10.2375 16.5921 10.2427C16.7098 10.2429 16.8274 10.3057 16.9503 10.3662Z" fill="#041E2F"/>
<path d="M11.7876 14.0792C11.7043 14.0874 11.6148 14.0577 11.5253 14.0577C9.24945 14.0579 6.97355 14.0612 4.6709 14.0642C4.71007 14.0367 4.77592 13.9852 4.84195 13.985C6.11565 13.9802 7.38937 13.9815 8.66309 13.9815C9.60054 13.9815 10.538 13.9793 11.4754 13.9848C11.5776 13.9854 11.6794 14.0305 11.7876 14.0792Z" fill="#041E2F"/>
<path d="M4.63013 15.3132C6.14097 15.2926 7.66148 15.2985 9.18198 15.3016C9.99848 15.3032 10.815 15.2999 11.6567 15.2983C11.6889 15.3264 11.6958 15.355 11.7027 15.3835C11.6317 15.3866 11.5607 15.3923 11.4896 15.3924C9.30302 15.3929 7.1164 15.3936 4.92978 15.3906C4.83309 15.3905 4.73645 15.3567 4.63013 15.3132Z" fill="#041E2F"/>
<path d="M11.4066 5.45224C11.4365 5.45222 11.4317 5.48251 11.428 5.49739C9.29203 5.51558 7.15981 5.51808 5.0276 5.52403C4.88669 5.52443 4.74585 5.55117 4.57959 5.56788C4.66555 5.53093 4.7768 5.45789 4.88828 5.45754C7.05105 5.4507 9.21385 5.45235 11.4066 5.45224Z" fill="#001627"/>
<path d="M15.1109 2.60099C15.0449 2.61308 14.976 2.60409 14.9224 2.59709C14.9224 4.23175 14.9224 5.85879 14.9219 7.51299C14.8791 7.39703 14.8009 7.25411 14.8002 7.11078C14.7921 5.55701 14.7961 4.00318 14.7977 2.44937C14.7977 2.42003 14.8085 2.3907 14.827 2.29636C14.9381 2.40853 15.0231 2.49422 15.1109 2.60099Z" fill="#11A193"/>
<path d="M9.73567 17.9139C9.76473 17.9416 9.76554 17.9669 9.74065 18.008C8.01499 18.0189 6.31502 18.014 4.61609 17.993C4.617 17.9556 4.61688 17.9342 4.61675 17.9129C6.31364 17.9124 8.01053 17.912 9.73567 17.9139Z" fill="#001627"/>
<path d="M15.538 7.99147C17.008 7.97276 18.5 7.97223 19.992 7.96384C20.101 7.96323 20.2097 7.90576 20.3253 7.84825C20.3898 7.86751 20.4476 7.91324 20.5603 8.00252C20.4312 8.01962 20.3758 8.03334 20.3203 8.03338C18.7935 8.03426 17.2666 8.03403 15.7397 8.03238C15.6798 8.03231 15.6199 8.0163 15.538 7.99147Z" fill="#11A193"/>
<path d="M4.59482 17.9137C4.61699 17.9342 4.61711 17.9556 4.59905 18.0067C4.14409 18.3202 4.08707 18.543 4.31799 19.0638C4.31799 19.0638 4.31432 19.0673 4.31242 19.069C4.09352 18.9621 3.96626 18.55 4.12107 18.3302C4.23624 18.1667 4.41972 18.0514 4.59482 17.9137Z" fill="#0A2637"/>
<path d="M17.0648 11.4398C17.3157 11.0549 17.3232 10.9051 17.0803 10.5037C17.1594 10.5745 17.2803 10.6517 17.325 10.7602C17.4233 10.999 17.2938 11.3275 17.0648 11.4398Z" fill="#0A2637"/>
<path d="M4.31377 10.51C4.14779 10.7883 4.12382 11.0637 4.31877 11.3673C4.05808 11.4108 4.08333 11.1564 4.09061 11.0476C4.10303 10.8621 4.21869 10.6835 4.31377 10.51Z" fill="#0A2637"/>
<path d="M15.1041 7.7502C15.2237 7.79648 15.3466 7.86357 15.4727 7.9523C15.3531 7.90629 15.2303 7.83866 15.1041 7.7502Z" fill="#11A193"/>
<path d="M4.53195 10.2998C4.57447 10.3018 4.59137 10.3039 4.63321 10.3119C4.56376 10.3757 4.46935 10.4335 4.35813 10.5022C4.27186 10.3457 4.356 10.2972 4.53195 10.2998Z" fill="#0A2637"/>
<path d="M4.38159 11.4675C4.45369 11.4794 4.52295 11.513 4.6065 11.5597C4.54012 11.5449 4.45943 11.5171 4.38159 11.4675Z" fill="#0A2637"/>
<path d="M14.9283 7.55825C14.9808 7.58845 15.0407 7.63704 15.1003 7.70714C15.0453 7.67799 14.9905 7.62731 14.9283 7.55825Z" fill="#11A193"/>
<path d="M4.323 11.4016C4.33879 11.3954 4.35847 11.4073 4.3839 11.436C4.36872 11.4418 4.3478 11.4308 4.323 11.4016Z" fill="#0A2637"/>
<path d="M15.1825 2.66952C15.1709 2.67499 15.1492 2.66586 15.1189 2.64099C15.131 2.63514 15.1517 2.64503 15.1825 2.66952Z" fill="#11A193"/>
<path d="M19.4215 24.7514C19.1436 24.7916 18.8757 24.8614 18.6289 24.8159C18.5157 24.7951 18.3774 24.5534 18.365 24.4025C18.3041 23.6589 18.3146 23.6665 17.6314 23.4276C17.2563 23.2964 16.8938 23.1294 16.5251 22.9798C16.3302 22.9007 16.2849 22.7834 16.4023 22.5976C16.5169 22.4165 16.6211 22.228 16.7176 22.0366C16.8094 21.8547 16.8961 21.8219 17.0997 21.9241C17.8196 22.2857 18.5721 22.5366 19.3983 22.3923C19.8451 22.3143 20.1221 22.0649 20.1303 21.7313C20.1372 21.4494 20.0144 21.2207 19.7511 21.1221C19.3513 20.9724 18.9375 20.8608 18.5311 20.7286C18.1243 20.5962 17.702 20.4951 17.3173 20.3147C16.6356 19.995 16.3323 19.4064 16.3616 18.6706C16.3928 17.8884 16.8141 17.3576 17.5317 17.0603C17.654 17.0097 17.783 16.9713 17.9122 16.9421C18.3563 16.842 18.3569 16.8445 18.3582 16.381C18.3599 15.7688 18.723 15.5151 19.3051 15.7288C19.5111 15.8045 19.5837 15.9697 19.5875 16.1895C19.5986 16.8378 19.6069 16.8303 20.2359 17.0341C20.5068 17.1219 20.7661 17.2461 21.0291 17.3573C21.1984 17.4288 21.2237 17.5454 21.1347 17.7027C20.9938 17.9515 20.915 18.3023 20.7037 18.4214C20.5558 18.5047 20.2332 18.2657 19.9842 18.1845C19.4236 18.0015 18.8564 17.8816 18.275 18.0939C18.0258 18.1849 17.8146 18.3142 17.7914 18.6207C17.7659 18.9566 17.9435 19.1849 18.2213 19.296C18.6178 19.4545 19.0366 19.5574 19.4463 19.6825C19.7779 19.7836 20.119 19.8599 20.4403 19.9867C21.1714 20.2752 21.5531 20.8221 21.5578 21.6154C21.5628 22.4377 21.1673 23.012 20.4399 23.3634C20.2672 23.4469 20.0758 23.5041 19.8867 23.538C19.657 23.5792 19.597 23.7047 19.5841 23.9203C19.5676 24.1945 19.6913 24.5 19.4215 24.7514Z" fill="#F1F8F8"/>
<path d="M30.6914 22.4699C30.2325 22.5555 29.9359 22.4035 29.8122 22.0397C29.6994 21.7081 29.8532 21.3502 30.1758 21.1937C30.4804 21.0459 30.8418 21.1432 31.0417 21.4269C31.2944 21.7857 31.1535 22.2312 30.6914 22.4699Z" fill="#EDF8F7"/>
<path d="M19.017 27.3613C19.0156 27.3694 18.9996 27.3762 18.9786 27.373C18.9736 27.363 19.0025 27.36 19.017 27.3613Z" fill="#0C3951"/>
<path d="M31.1674 7.71842C30.7156 7.87728 30.323 7.74621 30.158 7.40097C29.9915 7.05251 30.0843 6.64429 30.376 6.4428C30.7081 6.21334 31.2004 6.28388 31.4184 6.59217C31.6798 6.96173 31.5826 7.42836 31.1674 7.71842Z" fill="#EDF8F7"/>
<path d="M24.451 2.69811C24.9023 2.7275 25.1682 2.91606 25.2306 3.23159C25.3073 3.61967 25.1534 3.95904 24.8358 4.10183C24.5241 4.24201 24.1682 4.16362 23.9495 3.90433C23.5678 3.45187 23.8532 2.74754 24.451 2.69811Z" fill="#EDF8F7"/>
<path d="M31.5012 14.4801C31.5975 14.948 31.4188 15.2623 31.0128 15.3738C30.704 15.4587 30.3324 15.2708 30.2122 14.969C30.0819 14.6416 30.2216 14.2797 30.5415 14.1163C30.8821 13.9422 31.2629 14.0784 31.5012 14.4801Z" fill="#EDF8F7"/>
<path d="M4.33949 19.0698C4.08694 18.543 4.14396 18.3202 4.59788 18.0227C6.31499 18.014 8.01496 18.0189 9.74148 18.027C9.87324 18.1511 10.0133 18.2559 10.0771 18.3957C10.2639 18.8048 9.97271 19.2575 9.52189 19.2596C7.9472 19.2669 6.37242 19.268 4.7978 19.2553C4.65177 19.2541 4.50665 19.1384 4.33949 19.0698Z" fill="#F5F8F7"/>
</svg>
